<svg xmlns="http://www.w3.org/2000/svg" xmlns:xlink="http://www.w3.org/1999/xlink" width="230" zoomAndPan="magnify" viewBox="0 0 172.5 44.999999" height="60" preserveAspectRatio="xMidYMid meet" version="1.0"><defs><g/><clipPath id="f28dd2eece"><path d="M 0.914062 1.5625 L 34.566406 1.5625 L 34.566406 41.945312 L 0.914062 41.945312 Z M 0.914062 1.5625 " clip-rule="nonzero"/></clipPath></defs><g clip-path="url(#f28dd2eece)"><path fill="#0054a6" d="M 9.921875 28.109375 L 10.144531 28.109375 C 10.101562 28.222656 10.066406 28.308594 10.042969 28.367188 C 8.636719 32.226562 9 37.03125 12.042969 37.03125 L 12.042969 37.261719 L 2.378906 37.261719 L 2.378906 37.03125 C 5.28125 36.535156 7.414062 34.539062 9.183594 30 C 9.355469 29.558594 9.609375 28.910156 9.921875 28.109375 Z M 28.960938 30.953125 C 28.789062 30.542969 28.464844 29.730469 28.039062 28.644531 L 23.914062 28.644531 C 24.648438 30.570312 25.234375 32.109375 25.515625 32.859375 C 26.738281 36.171875 26.421875 37.03125 24.242188 37.03125 L 24.242188 37.261719 L 34.222656 37.261719 L 34.222656 37.03125 C 31.410156 37.03125 30.140625 33.855469 28.960938 30.953125 Z M 28.039062 28.644531 C 27.097656 26.246094 25.660156 22.507812 24.210938 18.726562 C 22.851562 17.894531 21.214844 17.175781 19.28125 16.546875 C 20.203125 18.949219 23.449219 27.433594 23.914062 28.644531 Z M 12.808594 20.726562 C 11.6875 23.589844 10.644531 26.257812 9.921875 28.109375 L 10.144531 28.109375 C 10.363281 27.53125 10.851562 26.28125 11.496094 24.648438 L 17.859375 24.648438 C 17.820312 24.570312 17.777344 24.496094 17.734375 24.421875 L 11.585938 24.421875 C 12.007812 23.335938 12.492188 22.09375 13.003906 20.777344 C 12.9375 20.757812 12.875 20.742188 12.808594 20.726562 Z M 19.171875 5.527344 C 19.136719 5.519531 19.105469 5.511719 19.070312 5.503906 L 18.753906 5.503906 C 18.753906 5.503906 17.757812 8.058594 16.398438 11.535156 C 16.464844 11.550781 16.53125 11.566406 16.597656 11.578125 C 16.730469 11.242188 16.859375 10.910156 16.984375 10.585938 C 17.007812 10.636719 17.171875 11.0625 17.441406 11.761719 C 19.125 12.125 20.636719 12.527344 22.011719 12.980469 C 20.484375 8.976562 19.28125 5.820312 19.171875 5.527344 Z M 15.695312 14.867188 C 25.308594 17.066406 30.152344 20.851562 30.152344 28.042969 C 30.152344 29.03125 30.03125 29.996094 29.800781 30.917969 C 30.238281 31.988281 30.6875 33.074219 31.21875 33.984375 C 32.375 31.992188 33.027344 29.730469 33.027344 27.324219 C 33.027344 18.445312 26.917969 14.484375 17.292969 12.425781 C 13.5 11.617188 10.5 10.851562 10.5 8.390625 C 10.5 6.140625 13.234375 4.636719 17.332031 4.636719 C 21.042969 4.636719 24.148438 6.917969 25.578125 10.457031 L 25.796875 10.988281 L 26 10.988281 L 25.519531 1.5625 L 25.160156 1.601562 L 25.160156 4.996094 C 25.160156 5.558594 25.203125 6.035156 25.28125 6.3125 L 25.082031 6.355469 C 25.042969 6.234375 24.601562 5.59375 24.320312 5.394531 C 22.265625 3.871094 19.886719 3.558594 17.210938 3.558594 C 11.460938 3.558594 7.625 5.8125 7.625 9.191406 C 7.625 12.984375 11.324219 13.863281 15.695312 14.867188 Z M 4.101562 35.636719 C 2.542969 33.738281 1.636719 31.457031 1.636719 29.003906 C 1.636719 23.929688 5.785156 19.816406 10.902344 19.816406 C 15.625 19.816406 19.457031 23.617188 19.457031 28.300781 C 19.457031 32.242188 16.890625 35.539062 13.039062 36.785156 C 18.136719 36.785156 22.285156 32.886719 22.285156 28.082031 C 22.285156 23.121094 17.25 19.097656 11.0625 19.097656 C 5.460938 19.097656 0.914062 23.535156 0.914062 29.003906 C 0.914062 31.5625 1.808594 33.953125 3.351562 35.964844 C 3.609375 35.871094 3.859375 35.761719 4.101562 35.636719 Z M 24.949219 38.050781 C 22.550781 39.835938 19.496094 40.90625 16.171875 40.90625 C 12.570312 40.90625 9.273438 39.832031 6.734375 38.050781 L 5.339844 38.050781 C 8.152344 40.453125 12.074219 41.945312 16.414062 41.945312 C 20.777344 41.945312 24.75 40.472656 27.71875 38.050781 Z M 24.949219 38.050781 " fill-opacity="1" fill-rule="nonzero"/></g><g fill="#ffffff" fill-opacity="1"><g transform="translate(32.95451, 22.992692)"><g><path d="M 2.28125 -1.21875 C 2.28125 -1.5625 2.375 -1.832031 2.5625 -2.03125 C 2.75 -2.226562 3.007812 -2.328125 3.34375 -2.328125 C 3.6875 -2.328125 3.960938 -2.222656 4.171875 -2.015625 C 4.378906 -1.816406 4.484375 -1.546875 4.484375 -1.203125 C 4.484375 -0.816406 4.375 -0.519531 4.15625 -0.3125 C 3.9375 -0.101562 3.613281 0 3.1875 0 C 2.707031 0 2.257812 -0.164062 1.84375 -0.5 C 1.425781 -0.832031 1.09375 -1.285156 0.84375 -1.859375 C 0.601562 -2.441406 0.484375 -3.09375 0.484375 -3.8125 C 0.484375 -4.644531 0.644531 -5.40625 0.96875 -6.09375 C 1.300781 -6.789062 1.8125 -7.484375 2.5 -8.171875 L 4.21875 -8.171875 L 4.75 -7.140625 L 4.1875 -7.140625 C 2.382812 -6.140625 1.484375 -4.851562 1.484375 -3.28125 C 1.484375 -2.769531 1.546875 -2.34375 1.671875 -2 C 1.796875 -1.65625 2.003906 -1.359375 2.296875 -1.109375 Z M 2.28125 -1.21875 "/></g></g></g><g fill="#ffffff" fill-opacity="1"><g transform="translate(37.325648, 22.992692)"><g><path d="M 6.75 0.15625 L 6.5625 0.15625 L 5.59375 -0.546875 L 5.59375 -1.296875 C 5.164062 -2.003906 4.648438 -2.484375 4.046875 -2.734375 C 3.859375 -2.023438 3.375 -1.671875 2.59375 -1.671875 C 2.132812 -1.671875 1.769531 -1.800781 1.5 -2.0625 C 1.238281 -2.320312 1.109375 -2.679688 1.109375 -3.140625 C 1.109375 -3.554688 1.253906 -3.894531 1.546875 -4.15625 C 1.835938 -4.425781 2.222656 -4.5625 2.703125 -4.5625 C 2.890625 -4.5625 3.054688 -4.539062 3.203125 -4.5 C 3.203125 -4.71875 3.109375 -4.921875 2.921875 -5.109375 C 2.742188 -5.296875 2.425781 -5.472656 1.96875 -5.640625 C 1.351562 -5.859375 0.941406 -6.066406 0.734375 -6.265625 C 0.523438 -6.460938 0.421875 -6.71875 0.421875 -7.03125 L 0.421875 -7.140625 L 0.125 -7.140625 L -0.40625 -8.171875 L 7.578125 -8.171875 L 8.109375 -7.140625 L 6.75 -7.140625 Z M 5.59375 -7.140625 L 2.0625 -7.140625 L 2.046875 -7.015625 C 2.046875 -6.835938 2.097656 -6.675781 2.203125 -6.53125 C 2.316406 -6.382812 2.523438 -6.226562 2.828125 -6.0625 C 3.285156 -5.800781 3.617188 -5.519531 3.828125 -5.21875 C 4.046875 -4.925781 4.164062 -4.550781 4.1875 -4.09375 C 4.46875 -3.90625 4.738281 -3.640625 5 -3.296875 C 5.257812 -2.960938 5.46875 -2.585938 5.625 -2.171875 C 5.601562 -2.660156 5.59375 -3.144531 5.59375 -3.625 Z M 5.59375 -7.140625 "/></g></g></g><g fill="#ffffff" fill-opacity="1"><g transform="translate(45.053759, 22.992692)"><g><path d="M 7.03125 0.15625 L 6.859375 0.15625 L 5.875 -0.546875 L 5.875 -4.09375 C 5.644531 -4.40625 5.410156 -4.5625 5.171875 -4.5625 C 4.984375 -4.5625 4.828125 -4.472656 4.703125 -4.296875 C 4.578125 -4.117188 4.441406 -3.828125 4.296875 -3.421875 C 4.035156 -2.691406 3.765625 -2.175781 3.484375 -1.875 C 3.210938 -1.570312 2.84375 -1.421875 2.375 -1.421875 C 1.9375 -1.421875 1.5625 -1.570312 1.25 -1.875 C 0.945312 -2.175781 0.644531 -2.675781 0.34375 -3.375 L 0.890625 -3.65625 C 1.035156 -3.363281 1.179688 -3.164062 1.328125 -3.0625 C 1.472656 -2.96875 1.625 -2.921875 1.78125 -2.921875 C 2.082031 -2.921875 2.328125 -3.054688 2.515625 -3.328125 C 2.703125 -3.597656 2.890625 -4.050781 3.078125 -4.6875 C 3.003906 -5.1875 2.851562 -5.539062 2.625 -5.75 C 2.40625 -5.957031 2.03125 -6.0625 1.5 -6.0625 C 1.289062 -6.0625 1.070312 -6.039062 0.84375 -6 L 0.4375 -7.140625 L 0.125 -7.140625 L -0.40625 -8.171875 L 7.859375 -8.171875 L 8.40625 -7.140625 L 7.03125 -7.140625 Z M 5.875 -7.140625 L 2.46875 -7.140625 C 3.019531 -6.835938 3.359375 -6.28125 3.484375 -5.46875 C 3.734375 -5.800781 4.0625 -5.96875 4.46875 -5.96875 C 4.789062 -5.96875 5.0625 -5.863281 5.28125 -5.65625 C 5.507812 -5.445312 5.722656 -5.160156 5.921875 -4.796875 C 5.890625 -5.035156 5.875 -5.367188 5.875 -5.796875 Z M 5.875 -7.140625 "/></g></g></g><g fill="#ffffff" fill-opacity="1"><g transform="translate(53.070716, 22.992692)"><g><path d="M 2.140625 0.140625 L 1.9375 0.140625 L 0.984375 -0.546875 L 0.984375 -6.421875 C 0.796875 -6.898438 0.476562 -7.140625 0.03125 -7.140625 L -0.0625 -7.140625 L -0.578125 -8.171875 L -0.078125 -8.171875 C 0.117188 -8.171875 0.3125 -8.070312 0.5 -7.875 C 0.695312 -7.6875 0.878906 -7.421875 1.046875 -7.078125 C 1.003906 -7.234375 0.984375 -7.5625 0.984375 -8.0625 L 0.984375 -9.234375 L 1.03125 -9.234375 L 2.125 -8.5625 L 2.125 -8.171875 L 2.984375 -8.171875 L 3.515625 -7.140625 L 2.140625 -7.140625 Z M 2.140625 0.140625 "/></g></g></g><g fill="#ffffff" fill-opacity="1"><g transform="translate(56.190203, 22.992692)"><g><path d="M 7.03125 0.15625 L 6.859375 0.15625 L 5.875 -0.546875 L 5.875 -4.09375 C 5.644531 -4.40625 5.410156 -4.5625 5.171875 -4.5625 C 4.984375 -4.5625 4.828125 -4.472656 4.703125 -4.296875 C 4.578125 -4.117188 4.441406 -3.828125 4.296875 -3.421875 C 4.035156 -2.691406 3.765625 -2.175781 3.484375 -1.875 C 3.210938 -1.570312 2.84375 -1.421875 2.375 -1.421875 C 1.9375 -1.421875 1.5625 -1.570312 1.25 -1.875 C 0.945312 -2.175781 0.644531 -2.675781 0.34375 -3.375 L 0.890625 -3.65625 C 1.035156 -3.363281 1.179688 -3.164062 1.328125 -3.0625 C 1.472656 -2.96875 1.625 -2.921875 1.78125 -2.921875 C 2.082031 -2.921875 2.328125 -3.054688 2.515625 -3.328125 C 2.703125 -3.597656 2.890625 -4.050781 3.078125 -4.6875 C 3.003906 -5.1875 2.851562 -5.539062 2.625 -5.75 C 2.40625 -5.957031 2.03125 -6.0625 1.5 -6.0625 C 1.289062 -6.0625 1.070312 -6.039062 0.84375 -6 L 0.4375 -7.140625 L 0.125 -7.140625 L -0.40625 -8.171875 L 7.859375 -8.171875 L 8.40625 -7.140625 L 7.03125 -7.140625 Z M 5.875 -7.140625 L 2.46875 -7.140625 C 3.019531 -6.835938 3.359375 -6.28125 3.484375 -5.46875 C 3.734375 -5.800781 4.0625 -5.96875 4.46875 -5.96875 C 4.789062 -5.96875 5.0625 -5.863281 5.28125 -5.65625 C 5.507812 -5.445312 5.722656 -5.160156 5.921875 -4.796875 C 5.890625 -5.035156 5.875 -5.367188 5.875 -5.796875 Z M 5.875 -7.140625 "/></g></g></g><g fill="#ffffff" fill-opacity="1"><g transform="translate(64.233679, 23.570431)"><g><path d="M 1.515625 -11.765625 L -1.453125 -9.078125 L -2.34375 -10.375 L 1.15625 -12.21875 Z M 1.515625 -11.765625 "/></g></g></g><g fill="#ffffff" fill-opacity="1"><g transform="translate(64.20716, 22.992692)"><g/></g></g><g fill="#ffffff" fill-opacity="1"><g transform="translate(67.621907, 22.992692)"><g><path d="M 7.65625 0.15625 L 7.453125 0.15625 L 6.5 -0.546875 C 6.3125 -0.753906 6.117188 -0.894531 5.921875 -0.96875 C 5.734375 -1.039062 5.488281 -1.078125 5.1875 -1.078125 C 4.8125 -1.078125 4.382812 -1.046875 3.90625 -0.984375 C 3.40625 -0.921875 3.007812 -0.890625 2.71875 -0.890625 C 2.007812 -0.890625 1.4375 -1.097656 1 -1.515625 C 0.570312 -1.941406 0.359375 -2.601562 0.359375 -3.5 C 0.359375 -4.007812 0.414062 -4.492188 0.53125 -4.953125 L 1.25 -4.8125 C 1.164062 -4.519531 1.125 -4.203125 1.125 -3.859375 C 1.125 -3.328125 1.265625 -2.960938 1.546875 -2.765625 C 1.828125 -2.578125 2.207031 -2.484375 2.6875 -2.484375 C 3.039062 -2.484375 3.445312 -2.507812 3.90625 -2.5625 C 4.226562 -2.601562 4.472656 -2.625 4.640625 -2.625 C 5.046875 -2.625 5.398438 -2.503906 5.703125 -2.265625 C 6.015625 -2.035156 6.296875 -1.675781 6.546875 -1.1875 C 6.515625 -1.59375 6.5 -2.046875 6.5 -2.546875 L 6.5 -6.25 C 6.5 -6.65625 6.441406 -6.929688 6.328125 -7.078125 C 6.222656 -7.234375 6.054688 -7.3125 5.828125 -7.3125 C 5.515625 -7.3125 5.203125 -7.140625 4.890625 -6.796875 C 4.578125 -6.460938 4.316406 -6.070312 4.109375 -5.625 L 4.328125 -5.640625 C 4.640625 -5.640625 4.890625 -5.539062 5.078125 -5.34375 C 5.273438 -5.15625 5.375 -4.894531 5.375 -4.5625 C 5.375 -4.164062 5.257812 -3.863281 5.03125 -3.65625 C 4.8125 -3.445312 4.5 -3.34375 4.09375 -3.34375 C 3.613281 -3.34375 3.234375 -3.488281 2.953125 -3.78125 C 2.679688 -4.082031 2.546875 -4.488281 2.546875 -5 C 2.546875 -5.5 2.691406 -6.003906 2.984375 -6.515625 C 3.273438 -7.035156 3.671875 -7.460938 4.171875 -7.796875 C 4.671875 -8.140625 5.207031 -8.3125 5.78125 -8.3125 C 6.207031 -8.3125 6.554688 -8.234375 6.828125 -8.078125 C 7.109375 -7.929688 7.316406 -7.71875 7.453125 -7.4375 C 7.585938 -7.164062 7.65625 -6.769531 7.65625 -6.25 Z M 7.65625 0.15625 "/></g></g></g><g fill="#ffffff" fill-opacity="1"><g transform="translate(76.158773, 22.992692)"><g><path d="M 7.03125 0.15625 L 6.859375 0.15625 L 5.875 -0.546875 L 5.875 -4.09375 C 5.644531 -4.40625 5.410156 -4.5625 5.171875 -4.5625 C 4.984375 -4.5625 4.828125 -4.472656 4.703125 -4.296875 C 4.578125 -4.117188 4.441406 -3.828125 4.296875 -3.421875 C 4.035156 -2.691406 3.765625 -2.175781 3.484375 -1.875 C 3.210938 -1.570312 2.84375 -1.421875 2.375 -1.421875 C 1.9375 -1.421875 1.5625 -1.570312 1.25 -1.875 C 0.945312 -2.175781 0.644531 -2.675781 0.34375 -3.375 L 0.890625 -3.65625 C 1.035156 -3.363281 1.179688 -3.164062 1.328125 -3.0625 C 1.472656 -2.96875 1.625 -2.921875 1.78125 -2.921875 C 2.082031 -2.921875 2.328125 -3.054688 2.515625 -3.328125 C 2.703125 -3.597656 2.890625 -4.050781 3.078125 -4.6875 C 3.003906 -5.1875 2.851562 -5.539062 2.625 -5.75 C 2.40625 -5.957031 2.03125 -6.0625 1.5 -6.0625 C 1.289062 -6.0625 1.070312 -6.039062 0.84375 -6 L 0.4375 -7.140625 L 0.125 -7.140625 L -0.40625 -8.171875 L 7.859375 -8.171875 L 8.40625 -7.140625 L 7.03125 -7.140625 Z M 5.875 -7.140625 L 2.46875 -7.140625 C 3.019531 -6.835938 3.359375 -6.28125 3.484375 -5.46875 C 3.734375 -5.800781 4.0625 -5.96875 4.46875 -5.96875 C 4.789062 -5.96875 5.0625 -5.863281 5.28125 -5.65625 C 5.507812 -5.445312 5.722656 -5.160156 5.921875 -4.796875 C 5.890625 -5.035156 5.875 -5.367188 5.875 -5.796875 Z M 5.875 -7.140625 "/></g></g></g><g fill="#ffffff" fill-opacity="1"><g transform="translate(84.175731, 22.992692)"><g><path d="M 3.015625 -0.9375 C 3.015625 -0.238281 2.65625 0.109375 1.9375 0.109375 C 1.21875 0.109375 0.859375 -0.238281 0.859375 -0.9375 C 0.859375 -1.644531 1.21875 -2 1.9375 -2 C 2.644531 -2 3.003906 -1.644531 3.015625 -0.9375 Z M 3.015625 -0.9375 "/></g></g></g><g fill="#ffffff" fill-opacity="1"><g transform="translate(88.039786, 22.992692)"><g><path d="M 7.65625 0.15625 L 7.453125 0.15625 L 6.5 -0.546875 C 6.3125 -0.753906 6.117188 -0.894531 5.921875 -0.96875 C 5.734375 -1.039062 5.488281 -1.078125 5.1875 -1.078125 C 4.8125 -1.078125 4.382812 -1.046875 3.90625 -0.984375 C 3.40625 -0.921875 3.007812 -0.890625 2.71875 -0.890625 C 2.007812 -0.890625 1.4375 -1.097656 1 -1.515625 C 0.570312 -1.941406 0.359375 -2.601562 0.359375 -3.5 C 0.359375 -4.007812 0.414062 -4.492188 0.53125 -4.953125 L 1.25 -4.8125 C 1.164062 -4.519531 1.125 -4.203125 1.125 -3.859375 C 1.125 -3.328125 1.265625 -2.960938 1.546875 -2.765625 C 1.828125 -2.578125 2.207031 -2.484375 2.6875 -2.484375 C 3.039062 -2.484375 3.445312 -2.507812 3.90625 -2.5625 C 4.226562 -2.601562 4.472656 -2.625 4.640625 -2.625 C 5.046875 -2.625 5.398438 -2.503906 5.703125 -2.265625 C 6.015625 -2.035156 6.296875 -1.675781 6.546875 -1.1875 C 6.515625 -1.59375 6.5 -2.046875 6.5 -2.546875 L 6.5 -6.25 C 6.5 -6.65625 6.441406 -6.929688 6.328125 -7.078125 C 6.222656 -7.234375 6.054688 -7.3125 5.828125 -7.3125 C 5.515625 -7.3125 5.203125 -7.140625 4.890625 -6.796875 C 4.578125 -6.460938 4.316406 -6.070312 4.109375 -5.625 L 4.328125 -5.640625 C 4.640625 -5.640625 4.890625 -5.539062 5.078125 -5.34375 C 5.273438 -5.15625 5.375 -4.894531 5.375 -4.5625 C 5.375 -4.164062 5.257812 -3.863281 5.03125 -3.65625 C 4.8125 -3.445312 4.5 -3.34375 4.09375 -3.34375 C 3.613281 -3.34375 3.234375 -3.488281 2.953125 -3.78125 C 2.679688 -4.082031 2.546875 -4.488281 2.546875 -5 C 2.546875 -5.5 2.691406 -6.003906 2.984375 -6.515625 C 3.273438 -7.035156 3.671875 -7.460938 4.171875 -7.796875 C 4.671875 -8.140625 5.207031 -8.3125 5.78125 -8.3125 C 6.207031 -8.3125 6.554688 -8.234375 6.828125 -8.078125 C 7.109375 -7.929688 7.316406 -7.71875 7.453125 -7.4375 C 7.585938 -7.164062 7.65625 -6.769531 7.65625 -6.25 Z M 7.65625 0.15625 "/></g></g></g><g fill="#ffffff" fill-opacity="1"><g transform="translate(96.576652, 22.992692)"><g><path d="M 3.015625 -0.9375 C 3.015625 -0.238281 2.65625 0.109375 1.9375 0.109375 C 1.21875 0.109375 0.859375 -0.238281 0.859375 -0.9375 C 0.859375 -1.644531 1.21875 -2 1.9375 -2 C 2.644531 -2 3.003906 -1.644531 3.015625 -0.9375 Z M 3.015625 -0.9375 "/></g></g></g><g fill="#ffffff" fill-opacity="1"><g transform="translate(100.440707, 22.992692)"><g/></g></g><g fill="#ffffff" fill-opacity="1"><g transform="translate(103.855454, 22.992692)"><g><path d="M 6.109375 0.15625 L 5.921875 0.15625 L 4.953125 -0.546875 C 4.460938 -1.265625 3.882812 -1.8125 3.21875 -2.1875 C 2.550781 -2.570312 1.78125 -2.832031 0.90625 -2.96875 L 0.296875 -4.546875 C 0.960938 -5.003906 1.707031 -5.4375 2.53125 -5.84375 C 3.351562 -6.25 4.164062 -6.585938 4.96875 -6.859375 L 4.96875 -7.140625 L 0.125 -7.140625 L -0.40625 -8.171875 L 6.953125 -8.171875 L 7.484375 -7.140625 L 6.109375 -7.140625 Z M 4.953125 -5.171875 C 3.878906 -4.765625 2.972656 -4.3125 2.234375 -3.8125 C 3.378906 -3.363281 4.285156 -2.570312 4.953125 -1.4375 Z M 3.15625 -0.734375 C 3.15625 -0.441406 3.0625 -0.207031 2.875 -0.03125 C 2.6875 0.144531 2.457031 0.234375 2.1875 0.234375 C 1.894531 0.234375 1.65625 0.144531 1.46875 -0.03125 C 1.28125 -0.21875 1.1875 -0.453125 1.1875 -0.734375 C 1.1875 -1.035156 1.28125 -1.273438 1.46875 -1.453125 C 1.664062 -1.628906 1.90625 -1.71875 2.1875 -1.71875 C 2.46875 -1.71875 2.695312 -1.625 2.875 -1.4375 C 3.0625 -1.257812 3.15625 -1.023438 3.15625 -0.734375 Z M 3.15625 -0.734375 "/></g></g></g><g fill="#ffffff" fill-opacity="1"><g transform="translate(110.954532, 22.992692)"><g><path d="M 2.140625 0.140625 L 1.9375 0.140625 L 0.984375 -0.546875 L 0.984375 -6.421875 C 0.796875 -6.898438 0.476562 -7.140625 0.03125 -7.140625 L -0.0625 -7.140625 L -0.578125 -8.171875 L -0.078125 -8.171875 C 0.117188 -8.171875 0.3125 -8.070312 0.5 -7.875 C 0.695312 -7.6875 0.878906 -7.421875 1.046875 -7.078125 C 1.003906 -7.234375 0.984375 -7.5625 0.984375 -8.0625 L 0.984375 -9.234375 L 1.03125 -9.234375 L 2.125 -8.5625 L 2.125 -8.171875 L 2.984375 -8.171875 L 3.515625 -7.140625 L 2.140625 -7.140625 Z M 2.140625 0.140625 "/></g></g></g><g fill="#ffffff" fill-opacity="1"><g transform="translate(114.074019, 22.992692)"><g><path d="M 5.984375 0.59375 C 5.140625 -0.207031 4.335938 -0.78125 3.578125 -1.125 C 2.828125 -1.46875 1.925781 -1.664062 0.875 -1.71875 L 0.53125 -3.515625 C 0.84375 -3.410156 1.191406 -3.328125 1.578125 -3.265625 C 1.960938 -3.210938 2.316406 -3.1875 2.640625 -3.1875 C 3.421875 -3.1875 4.003906 -3.28125 4.390625 -3.46875 C 4.773438 -3.65625 4.96875 -3.988281 4.96875 -4.46875 C 4.96875 -4.800781 4.847656 -5.066406 4.609375 -5.265625 C 4.378906 -5.460938 4.050781 -5.5625 3.625 -5.5625 L 3.28125 -5.546875 L 3.28125 -5.421875 C 3.28125 -4.953125 3.171875 -4.609375 2.953125 -4.390625 C 2.742188 -4.179688 2.414062 -4.078125 1.96875 -4.078125 C 1.601562 -4.078125 1.304688 -4.179688 1.078125 -4.390625 C 0.847656 -4.597656 0.734375 -4.894531 0.734375 -5.28125 C 0.734375 -5.632812 0.859375 -5.914062 1.109375 -6.125 C 1.359375 -6.332031 1.710938 -6.46875 2.171875 -6.53125 C 1.960938 -6.78125 1.71875 -6.984375 1.4375 -7.140625 L 0.125 -7.140625 L -0.40625 -8.171875 L 4.9375 -8.171875 C 4.863281 -8.585938 4.75 -8.890625 4.59375 -9.078125 C 4.445312 -9.273438 4.21875 -9.375 3.90625 -9.375 C 3.738281 -9.375 3.476562 -9.351562 3.125 -9.3125 C 2.644531 -9.257812 2.257812 -9.234375 1.96875 -9.234375 C 1.257812 -9.234375 0.738281 -9.414062 0.40625 -9.78125 C 0.0703125 -10.15625 -0.09375 -10.6875 -0.09375 -11.375 C -0.09375 -11.59375 -0.078125 -11.816406 -0.046875 -12.046875 L 0.609375 -11.984375 L 0.59375 -11.71875 C 0.59375 -11.351562 0.671875 -11.09375 0.828125 -10.9375 C 0.984375 -10.789062 1.3125 -10.71875 1.8125 -10.71875 C 2.070312 -10.71875 2.398438 -10.738281 2.796875 -10.78125 C 3.160156 -10.8125 3.414062 -10.828125 3.5625 -10.828125 C 4.175781 -10.828125 4.644531 -10.617188 4.96875 -10.203125 C 5.289062 -9.796875 5.5 -9.117188 5.59375 -8.171875 L 6.359375 -8.171875 L 6.890625 -7.140625 L 2.6875 -7.140625 C 2.832031 -6.972656 2.953125 -6.78125 3.046875 -6.5625 C 3.890625 -6.507812 4.566406 -6.25 5.078125 -5.78125 C 5.597656 -5.320312 5.859375 -4.75 5.859375 -4.0625 C 5.859375 -3.519531 5.707031 -3.0625 5.40625 -2.6875 C 5.101562 -2.3125 4.691406 -2.03125 4.171875 -1.84375 C 4.929688 -1.382812 5.6875 -0.722656 6.4375 0.140625 Z M 5.984375 0.59375 "/></g></g></g><g fill="#ffffff" fill-opacity="1"><g transform="translate(120.569739, 22.992692)"><g><path d="M 6.375 -4.375 C 6.238281 -3.164062 5.851562 -2.171875 5.21875 -1.390625 C 4.59375 -0.609375 3.847656 -0.21875 2.984375 -0.21875 C 2.359375 -0.21875 1.867188 -0.394531 1.515625 -0.75 C 1.160156 -1.113281 0.984375 -1.617188 0.984375 -2.265625 L 0.984375 -7.140625 L 0.125 -7.140625 L -0.40625 -8.171875 L 6.609375 -8.171875 L 7.140625 -7.140625 L 2.140625 -7.140625 L 2.140625 -6.921875 C 2.773438 -5.847656 3.773438 -5.3125 5.140625 -5.3125 L 5.578125 -5.34375 Z M 2.140625 -2.453125 C 2.140625 -2.035156 2.164062 -1.75 2.21875 -1.59375 C 2.28125 -1.445312 2.367188 -1.328125 2.484375 -1.234375 C 2.609375 -1.148438 2.765625 -1.109375 2.953125 -1.109375 C 3.347656 -1.109375 3.703125 -1.375 4.015625 -1.90625 C 4.328125 -2.445312 4.550781 -3.148438 4.6875 -4.015625 C 3.675781 -4.234375 2.828125 -4.847656 2.140625 -5.859375 Z M 2.140625 -2.453125 "/></g></g></g><g fill="#ffffff" fill-opacity="1"><g transform="translate(127.315795, 22.992692)"><g/></g></g><g fill="#ffffff" fill-opacity="1"><g transform="translate(130.730542, 22.992692)"><g><path d="M 7.65625 0.15625 L 7.453125 0.15625 L 6.5 -0.546875 C 6.3125 -0.753906 6.117188 -0.894531 5.921875 -0.96875 C 5.734375 -1.039062 5.488281 -1.078125 5.1875 -1.078125 C 4.8125 -1.078125 4.382812 -1.046875 3.90625 -0.984375 C 3.40625 -0.921875 3.007812 -0.890625 2.71875 -0.890625 C 2.007812 -0.890625 1.4375 -1.097656 1 -1.515625 C 0.570312 -1.941406 0.359375 -2.601562 0.359375 -3.5 C 0.359375 -4.007812 0.414062 -4.492188 0.53125 -4.953125 L 1.25 -4.8125 C 1.164062 -4.519531 1.125 -4.203125 1.125 -3.859375 C 1.125 -3.328125 1.265625 -2.960938 1.546875 -2.765625 C 1.828125 -2.578125 2.207031 -2.484375 2.6875 -2.484375 C 3.039062 -2.484375 3.445312 -2.507812 3.90625 -2.5625 C 4.226562 -2.601562 4.472656 -2.625 4.640625 -2.625 C 5.046875 -2.625 5.398438 -2.503906 5.703125 -2.265625 C 6.015625 -2.035156 6.296875 -1.675781 6.546875 -1.1875 C 6.515625 -1.59375 6.5 -2.046875 6.5 -2.546875 L 6.5 -6.25 C 6.5 -6.65625 6.441406 -6.929688 6.328125 -7.078125 C 6.222656 -7.234375 6.054688 -7.3125 5.828125 -7.3125 C 5.515625 -7.3125 5.203125 -7.140625 4.890625 -6.796875 C 4.578125 -6.460938 4.316406 -6.070312 4.109375 -5.625 L 4.328125 -5.640625 C 4.640625 -5.640625 4.890625 -5.539062 5.078125 -5.34375 C 5.273438 -5.15625 5.375 -4.894531 5.375 -4.5625 C 5.375 -4.164062 5.257812 -3.863281 5.03125 -3.65625 C 4.8125 -3.445312 4.5 -3.34375 4.09375 -3.34375 C 3.613281 -3.34375 3.234375 -3.488281 2.953125 -3.78125 C 2.679688 -4.082031 2.546875 -4.488281 2.546875 -5 C 2.546875 -5.5 2.691406 -6.003906 2.984375 -6.515625 C 3.273438 -7.035156 3.671875 -7.460938 4.171875 -7.796875 C 4.671875 -8.140625 5.207031 -8.3125 5.78125 -8.3125 C 6.207031 -8.3125 6.554688 -8.234375 6.828125 -8.078125 C 7.109375 -7.929688 7.316406 -7.71875 7.453125 -7.4375 C 7.585938 -7.164062 7.65625 -6.769531 7.65625 -6.25 Z M 7.65625 0.15625 "/></g></g></g><g fill="#ffffff" fill-opacity="1"><g transform="translate(139.267408, 22.992692)"><g><path d="M 2.28125 -1.21875 C 2.28125 -1.5625 2.375 -1.832031 2.5625 -2.03125 C 2.75 -2.226562 3.007812 -2.328125 3.34375 -2.328125 C 3.6875 -2.328125 3.960938 -2.222656 4.171875 -2.015625 C 4.378906 -1.816406 4.484375 -1.546875 4.484375 -1.203125 C 4.484375 -0.816406 4.375 -0.519531 4.15625 -0.3125 C 3.9375 -0.101562 3.613281 0 3.1875 0 C 2.707031 0 2.257812 -0.164062 1.84375 -0.5 C 1.425781 -0.832031 1.09375 -1.285156 0.84375 -1.859375 C 0.601562 -2.441406 0.484375 -3.09375 0.484375 -3.8125 C 0.484375 -4.425781 0.582031 -5.003906 0.78125 -5.546875 C 0.988281 -6.085938 1.300781 -6.617188 1.71875 -7.140625 L 0.140625 -7.140625 L -0.390625 -8.171875 L 4.21875 -8.171875 L 4.75 -7.140625 L 4.1875 -7.140625 C 2.382812 -6.140625 1.484375 -4.851562 1.484375 -3.28125 C 1.484375 -2.769531 1.546875 -2.34375 1.671875 -2 C 1.796875 -1.65625 2.003906 -1.359375 2.296875 -1.109375 Z M 2.28125 -1.21875 "/></g></g></g><g fill="#ffffff" fill-opacity="1"><g transform="translate(143.638546, 22.992692)"><g><path d="M 10.125 0.234375 C 9.34375 -0.898438 8.953125 -2.085938 8.953125 -3.328125 C 8.953125 -3.828125 9.015625 -4.320312 9.140625 -4.8125 C 8.628906 -4.976562 8.160156 -5.253906 7.734375 -5.640625 C 7.304688 -6.023438 6.941406 -6.488281 6.640625 -7.03125 C 6.015625 -6.757812 5.535156 -6.535156 5.203125 -6.359375 C 4.878906 -6.179688 4.613281 -5.972656 4.40625 -5.734375 C 4.195312 -5.492188 4.09375 -5.21875 4.09375 -4.90625 C 4.09375 -4.65625 4.160156 -4.457031 4.296875 -4.3125 C 4.441406 -4.164062 4.644531 -4.09375 4.90625 -4.09375 C 5.144531 -4.09375 5.363281 -4.15625 5.5625 -4.28125 C 5.757812 -4.414062 5.925781 -4.578125 6.0625 -4.765625 C 6.207031 -4.953125 6.390625 -5.207031 6.609375 -5.53125 L 6.75 -5.78125 C 7.15625 -5.4375 7.484375 -5.015625 7.734375 -4.515625 C 7.984375 -4.023438 8.109375 -3.488281 8.109375 -2.90625 C 8.109375 -2.070312 7.84375 -1.398438 7.3125 -0.890625 C 6.789062 -0.390625 6.097656 -0.140625 5.234375 -0.140625 C 4.378906 -0.140625 3.617188 -0.414062 2.953125 -0.96875 C 2.296875 -1.519531 1.75 -2.25 1.3125 -3.15625 C 0.882812 -4.070312 0.539062 -5.09375 0.28125 -6.21875 L 0.890625 -6.40625 C 1.222656 -5.507812 1.550781 -4.75 1.875 -4.125 C 2.195312 -3.507812 2.625 -2.984375 3.15625 -2.546875 C 3.695312 -2.117188 4.359375 -1.90625 5.140625 -1.90625 C 5.785156 -1.90625 6.289062 -2.03125 6.65625 -2.28125 C 7.03125 -2.539062 7.21875 -2.898438 7.21875 -3.359375 C 7.21875 -3.484375 7.203125 -3.597656 7.171875 -3.703125 C 6.929688 -3.472656 6.628906 -3.289062 6.265625 -3.15625 C 5.898438 -3.03125 5.523438 -2.96875 5.140625 -2.96875 C 4.523438 -2.96875 4.035156 -3.15625 3.671875 -3.53125 C 3.304688 -3.914062 3.125 -4.414062 3.125 -5.03125 C 3.125 -5.476562 3.207031 -5.867188 3.375 -6.203125 C 3.550781 -6.535156 3.8125 -6.851562 4.15625 -7.15625 L 2.984375 -7.140625 L 0.125 -7.140625 L -0.40625 -8.171875 L 11.1875 -8.171875 L 11.71875 -7.140625 L 7.34375 -7.140625 C 7.882812 -6.441406 8.691406 -6.09375 9.765625 -6.09375 L 9.96875 -6.109375 L 10.71875 -5.21875 C 10.488281 -4.8125 10.320312 -4.421875 10.21875 -4.046875 C 10.125 -3.671875 10.078125 -3.242188 10.078125 -2.765625 C 10.078125 -2.265625 10.113281 -1.804688 10.1875 -1.390625 C 10.269531 -0.972656 10.414062 -0.519531 10.625 -0.03125 Z M 10.125 0.234375 "/></g></g></g><g fill="#ffffff" fill-opacity="1"><g transform="translate(154.980388, 22.992692)"><g><path d="M 10.203125 0.15625 L 10.03125 0.15625 L 9.046875 -0.546875 L 9.046875 -4.09375 C 8.828125 -4.40625 8.59375 -4.5625 8.34375 -4.5625 C 8.15625 -4.5625 8 -4.472656 7.875 -4.296875 C 7.75 -4.117188 7.613281 -3.828125 7.46875 -3.421875 C 7.21875 -2.691406 6.953125 -2.175781 6.671875 -1.875 C 6.390625 -1.570312 6.015625 -1.421875 5.546875 -1.421875 C 5.128906 -1.421875 4.769531 -1.550781 4.46875 -1.8125 C 4.175781 -2.082031 3.898438 -2.507812 3.640625 -3.09375 L 4.171875 -3.375 C 4.359375 -3.070312 4.617188 -2.921875 4.953125 -2.921875 C 5.046875 -2.921875 5.140625 -2.929688 5.234375 -2.953125 C 5.003906 -3.421875 4.703125 -3.804688 4.328125 -4.109375 C 3.953125 -4.421875 3.550781 -4.617188 3.125 -4.703125 C 3.144531 -4.609375 3.15625 -4.519531 3.15625 -4.4375 C 3.15625 -4.007812 3.035156 -3.679688 2.796875 -3.453125 C 2.554688 -3.222656 2.222656 -3.109375 1.796875 -3.109375 C 1.378906 -3.109375 1.046875 -3.238281 0.796875 -3.5 C 0.546875 -3.769531 0.421875 -4.113281 0.421875 -4.53125 C 0.421875 -5.007812 0.582031 -5.394531 0.90625 -5.6875 C 1.226562 -5.976562 1.648438 -6.125 2.171875 -6.125 C 2.898438 -6.125 3.578125 -5.882812 4.203125 -5.40625 C 4.828125 -4.9375 5.34375 -4.273438 5.75 -3.421875 C 5.914062 -3.691406 6.082031 -4.113281 6.25 -4.6875 C 6.175781 -5.1875 6.03125 -5.539062 5.8125 -5.75 C 5.59375 -5.957031 5.210938 -6.0625 4.671875 -6.0625 C 4.460938 -6.0625 4.242188 -6.039062 4.015625 -6 L 3.609375 -7.140625 L 0.125 -7.140625 L -0.40625 -8.171875 L 11.0625 -8.171875 L 11.59375 -7.140625 L 10.203125 -7.140625 Z M 9.046875 -7.140625 L 5.640625 -7.140625 C 6.203125 -6.835938 6.546875 -6.28125 6.671875 -5.46875 C 6.910156 -5.800781 7.234375 -5.96875 7.640625 -5.96875 C 7.960938 -5.96875 8.234375 -5.863281 8.453125 -5.65625 C 8.679688 -5.445312 8.894531 -5.160156 9.09375 -4.796875 C 9.0625 -5.035156 9.046875 -5.367188 9.046875 -5.796875 Z M 9.046875 -7.140625 "/></g></g></g><g fill="#ffffff" fill-opacity="1"><g transform="translate(166.174595, 22.992692)"><g><path d="M 2.140625 0.140625 L 1.9375 0.140625 L 0.984375 -0.546875 L 0.984375 -7.140625 L 0.125 -7.140625 L -0.40625 -8.171875 L 0.984375 -8.171875 C 0.910156 -9.242188 0.515625 -9.992188 -0.203125 -10.421875 C -0.921875 -10.859375 -1.898438 -11.078125 -3.140625 -11.078125 C -4.679688 -11.078125 -5.453125 -10.898438 -5.453125 -10.546875 C -5.453125 -10.429688 -5.390625 -10.347656 -5.265625 -10.296875 C -5.148438 -10.253906 -4.984375 -10.234375 -4.765625 -10.234375 L -3.65625 -10.234375 C -2.863281 -10.234375 -2.285156 -10.082031 -1.921875 -9.78125 C -1.554688 -9.476562 -1.335938 -8.929688 -1.265625 -8.140625 L -1.90625 -8.140625 C -1.96875 -8.429688 -2.066406 -8.617188 -2.203125 -8.703125 C -2.335938 -8.796875 -2.582031 -8.84375 -2.9375 -8.84375 L -3.375 -8.84375 C -4.132812 -8.84375 -4.703125 -8.890625 -5.078125 -8.984375 C -5.453125 -9.078125 -5.738281 -9.226562 -5.9375 -9.4375 C -6.132812 -9.644531 -6.234375 -9.925781 -6.234375 -10.28125 C -6.234375 -10.84375 -5.960938 -11.273438 -5.421875 -11.578125 C -4.890625 -11.890625 -4.132812 -12.046875 -3.15625 -12.046875 C -1.550781 -12.046875 -0.296875 -11.722656 0.609375 -11.078125 C 1.515625 -10.441406 2.023438 -9.472656 2.140625 -8.171875 L 2.984375 -8.171875 L 3.515625 -7.140625 L 2.140625 -7.140625 Z M 2.140625 0.140625 "/></g></g></g><g fill="#ffffff" fill-opacity="1"><g transform="translate(44.417979, 32.612369)"><g><path d="M 2.859375 -4.34375 L 2.859375 -3.578125 L 2.453125 -3.578125 C 2.066406 -3.378906 1.765625 -3.128906 1.546875 -2.828125 C 1.335938 -2.523438 1.234375 -2.195312 1.234375 -1.84375 C 1.234375 -1.488281 1.304688 -1.21875 1.453125 -1.03125 C 1.609375 -0.84375 1.8125 -0.75 2.0625 -0.75 C 2.175781 -0.75 2.269531 -0.757812 2.34375 -0.78125 C 2.425781 -0.8125 2.5 -0.847656 2.5625 -0.890625 L 2.921875 -0.1875 C 2.796875 -0.113281 2.660156 -0.0546875 2.515625 -0.015625 C 2.367188 0.015625 2.195312 0.03125 2 0.03125 C 1.46875 0.03125 1.050781 -0.128906 0.75 -0.453125 C 0.445312 -0.773438 0.296875 -1.226562 0.296875 -1.8125 C 0.296875 -2.34375 0.453125 -2.835938 0.765625 -3.296875 C 1.078125 -3.753906 1.5 -4.101562 2.03125 -4.34375 Z M 2.859375 -4.34375 "/></g></g><g transform="translate(47.205805, 32.612369)"><g><path d="M 4.96875 -3.578125 C 4.78125 -3.578125 4.628906 -3.582031 4.515625 -3.59375 C 4.742188 -3.289062 5.160156 -3.140625 5.765625 -3.140625 C 5.867188 -3.140625 5.992188 -3.144531 6.140625 -3.15625 L 6.5625 -2.46875 C 6.375 -2.15625 6.28125 -1.789062 6.28125 -1.375 C 6.28125 -0.957031 6.359375 -0.535156 6.515625 -0.109375 L 5.609375 0.078125 C 5.441406 -0.453125 5.359375 -0.9375 5.359375 -1.375 C 5.359375 -1.78125 5.40625 -2.117188 5.5 -2.390625 C 4.601562 -2.503906 3.984375 -2.847656 3.640625 -3.421875 C 3.359375 -3.285156 3.144531 -3.148438 3 -3.015625 C 2.863281 -2.878906 2.796875 -2.75 2.796875 -2.625 C 2.796875 -2.539062 2.816406 -2.472656 2.859375 -2.421875 C 2.910156 -2.378906 2.972656 -2.359375 3.046875 -2.359375 C 3.160156 -2.359375 3.265625 -2.378906 3.359375 -2.421875 C 3.453125 -2.460938 3.570312 -2.539062 3.71875 -2.65625 L 4.734375 -2.359375 C 4.816406 -2.128906 4.859375 -1.894531 4.859375 -1.65625 C 4.859375 -1.382812 4.789062 -1.132812 4.65625 -0.90625 C 4.519531 -0.6875 4.316406 -0.515625 4.046875 -0.390625 C 3.773438 -0.273438 3.453125 -0.21875 3.078125 -0.21875 C 2.535156 -0.21875 2.078125 -0.320312 1.703125 -0.53125 C 1.328125 -0.738281 1.007812 -1.046875 0.75 -1.453125 C 0.488281 -1.867188 0.273438 -2.378906 0.109375 -2.984375 L 0.984375 -3.234375 C 1.191406 -2.472656 1.457031 -1.910156 1.78125 -1.546875 C 2.101562 -1.191406 2.515625 -1.015625 3.015625 -1.015625 C 3.316406 -1.015625 3.546875 -1.066406 3.703125 -1.171875 C 3.867188 -1.285156 3.953125 -1.445312 3.953125 -1.65625 C 3.953125 -1.726562 3.941406 -1.8125 3.921875 -1.90625 C 3.617188 -1.695312 3.285156 -1.59375 2.921875 -1.59375 C 2.597656 -1.59375 2.34375 -1.671875 2.15625 -1.828125 C 1.96875 -1.984375 1.875 -2.203125 1.875 -2.484375 C 1.875 -2.710938 1.929688 -2.921875 2.046875 -3.109375 C 2.171875 -3.304688 2.351562 -3.460938 2.59375 -3.578125 C 2.46875 -3.578125 2.304688 -3.578125 2.109375 -3.578125 L -0.078125 -3.578125 L -0.078125 -4.34375 L 7.0625 -4.34375 L 7.0625 -3.578125 Z M 4.625 -4.34375 Z M 5.5625 0 Z M 5.5625 0 "/></g></g></g><g fill="#ffffff" fill-opacity="1"><g transform="translate(54.19582, 32.612369)"><g><path d="M 2.90625 -2.25 C 2.90625 -2.34375 2.90625 -2.5 2.90625 -2.71875 L 2.90625 -3.578125 L -0.078125 -3.578125 L -0.078125 -4.34375 L 4.5 -4.34375 L 4.5 -3.578125 L 3.828125 -3.578125 L 3.828125 0 L 2.90625 0 L 2.90625 -1.28125 C 2.40625 -1.84375 1.960938 -2.125 1.578125 -2.125 C 1.441406 -2.125 1.335938 -2.09375 1.265625 -2.03125 C 1.191406 -1.976562 1.15625 -1.898438 1.15625 -1.796875 C 1.15625 -1.679688 1.191406 -1.585938 1.265625 -1.515625 C 1.347656 -1.441406 1.46875 -1.378906 1.625 -1.328125 L 1.203125 -0.5625 C 0.890625 -0.6875 0.644531 -0.859375 0.46875 -1.078125 C 0.289062 -1.304688 0.203125 -1.554688 0.203125 -1.828125 C 0.203125 -2.160156 0.316406 -2.425781 0.546875 -2.625 C 0.773438 -2.820312 1.054688 -2.921875 1.390625 -2.921875 C 1.648438 -2.921875 1.898438 -2.867188 2.140625 -2.765625 C 2.390625 -2.660156 2.644531 -2.488281 2.90625 -2.25 Z M 2.90625 -2.25 "/></g></g><g transform="translate(58.619535, 32.612369)"><g><path d="M 1.515625 0 L 0.59375 0 L 0.59375 -3.109375 C 0.476562 -3.421875 0.269531 -3.578125 -0.03125 -3.578125 L -0.078125 -3.578125 L -0.078125 -4.34375 L 0.078125 -4.34375 C 0.210938 -4.34375 0.320312 -4.300781 0.40625 -4.21875 C 0.488281 -4.144531 0.5625 -4.039062 0.625 -3.90625 C 0.601562 -4.019531 0.59375 -4.144531 0.59375 -4.28125 L 0.59375 -4.8125 L 1.359375 -4.8125 L 1.515625 -4.34375 L 2.203125 -4.34375 L 2.203125 -3.578125 L 1.515625 -3.578125 Z M 0.359375 -4.34375 Z M 0.359375 -4.34375 "/></g></g></g><g fill="#ffffff" fill-opacity="1"><g transform="translate(60.742782, 32.612369)"><g><path d="M 2.859375 -4.34375 L 2.859375 -3.578125 L 2.453125 -3.578125 C 2.066406 -3.378906 1.765625 -3.128906 1.546875 -2.828125 C 1.335938 -2.523438 1.234375 -2.195312 1.234375 -1.84375 C 1.234375 -1.488281 1.304688 -1.21875 1.453125 -1.03125 C 1.609375 -0.84375 1.8125 -0.75 2.0625 -0.75 C 2.175781 -0.75 2.269531 -0.757812 2.34375 -0.78125 C 2.425781 -0.8125 2.5 -0.847656 2.5625 -0.890625 L 2.921875 -0.1875 C 2.796875 -0.113281 2.660156 -0.0546875 2.515625 -0.015625 C 2.367188 0.015625 2.195312 0.03125 2 0.03125 C 1.46875 0.03125 1.050781 -0.128906 0.75 -0.453125 C 0.445312 -0.773438 0.296875 -1.226562 0.296875 -1.8125 C 0.296875 -2.164062 0.367188 -2.5 0.515625 -2.8125 C 0.671875 -3.125 0.882812 -3.382812 1.15625 -3.59375 C 1.0625 -3.582031 0.894531 -3.578125 0.65625 -3.578125 L -0.078125 -3.578125 L -0.078125 -4.34375 Z M 2.859375 -4.34375 "/></g></g><g transform="translate(63.530608, 32.612369)"><g><path d="M 3.78125 0 L 2.875 0 C 2.613281 -0.375 2.273438 -0.679688 1.859375 -0.921875 C 1.453125 -1.171875 0.984375 -1.335938 0.453125 -1.421875 L 0.109375 -2.234375 C 1.078125 -2.773438 2.003906 -3.171875 2.890625 -3.421875 L 2.890625 -3.578125 L -0.078125 -3.578125 L -0.078125 -4.34375 L 4.46875 -4.34375 L 4.46875 -3.578125 L 3.78125 -3.578125 Z M 1.28125 -1.9375 C 1.582031 -1.875 1.867188 -1.765625 2.140625 -1.609375 C 2.421875 -1.453125 2.664062 -1.265625 2.875 -1.046875 C 2.875 -1.128906 2.875 -1.265625 2.875 -1.453125 L 2.875 -2.59375 C 2.414062 -2.445312 1.882812 -2.226562 1.28125 -1.9375 Z M 1.1875 -0.96875 C 1.332031 -0.96875 1.453125 -0.914062 1.546875 -0.8125 C 1.648438 -0.71875 1.703125 -0.597656 1.703125 -0.453125 C 1.703125 -0.296875 1.648438 -0.164062 1.546875 -0.0625 C 1.453125 0.03125 1.332031 0.078125 1.1875 0.078125 C 1.039062 0.078125 0.914062 0.03125 0.8125 -0.0625 C 0.71875 -0.164062 0.671875 -0.296875 0.671875 -0.453125 C 0.671875 -0.597656 0.71875 -0.71875 0.8125 -0.8125 C 0.914062 -0.914062 1.039062 -0.96875 1.1875 -0.96875 Z M 1.1875 -0.96875 "/></g></g></g><g fill="#ffffff" fill-opacity="1"><g transform="translate(67.920242, 32.612369)"><g><path d="M 4.8125 0 L 3.890625 0 L 3.890625 -2.078125 C 3.753906 -2.222656 3.613281 -2.296875 3.46875 -2.296875 C 3.351562 -2.296875 3.265625 -2.253906 3.203125 -2.171875 C 3.140625 -2.097656 3.109375 -1.988281 3.109375 -1.84375 C 3.109375 -1.757812 3.113281 -1.6875 3.125 -1.625 L 2.34375 -1.578125 C 2.300781 -1.816406 2.210938 -2 2.078125 -2.125 C 1.941406 -2.257812 1.773438 -2.328125 1.578125 -2.328125 C 1.453125 -2.328125 1.347656 -2.289062 1.265625 -2.21875 C 1.191406 -2.15625 1.15625 -2.066406 1.15625 -1.953125 C 1.15625 -1.804688 1.207031 -1.679688 1.3125 -1.578125 C 1.425781 -1.484375 1.601562 -1.40625 1.84375 -1.34375 L 1.5625 -0.546875 C 1.113281 -0.679688 0.773438 -0.867188 0.546875 -1.109375 C 0.316406 -1.359375 0.203125 -1.648438 0.203125 -1.984375 C 0.203125 -2.316406 0.320312 -2.585938 0.5625 -2.796875 C 0.800781 -3.003906 1.101562 -3.109375 1.46875 -3.109375 C 1.707031 -3.109375 1.914062 -3.070312 2.09375 -3 C 2.269531 -2.925781 2.445312 -2.804688 2.625 -2.640625 C 2.675781 -2.773438 2.757812 -2.878906 2.875 -2.953125 C 3 -3.035156 3.132812 -3.078125 3.28125 -3.078125 C 3.507812 -3.078125 3.71875 -3.007812 3.90625 -2.875 C 3.894531 -2.988281 3.890625 -3.101562 3.890625 -3.21875 L 3.890625 -3.578125 L -0.078125 -3.578125 L -0.078125 -4.34375 L 5.5 -4.34375 L 5.5 -3.578125 L 4.8125 -3.578125 Z M 4.8125 0 "/></g></g><g transform="translate(73.339122, 32.612369)"><g/></g></g><g fill="#ffffff" fill-opacity="1"><g transform="translate(75.152232, 32.612369)"><g><path d="M 1.296875 -2.671875 C 1.234375 -2.816406 1.125 -2.921875 0.96875 -2.984375 C 0.820312 -3.054688 0.535156 -3.125 0.109375 -3.1875 L 0.203125 -3.578125 L -0.078125 -3.578125 L -0.078125 -4.34375 L 4.578125 -4.34375 L 4.578125 -3.578125 L 3.90625 -3.578125 L 3.90625 0 L 2.984375 0 L 2.984375 -1.0625 C 2.484375 -1.632812 2.039062 -1.921875 1.65625 -1.921875 C 1.519531 -1.921875 1.414062 -1.890625 1.34375 -1.828125 C 1.269531 -1.773438 1.234375 -1.691406 1.234375 -1.578125 C 1.234375 -1.472656 1.269531 -1.382812 1.34375 -1.3125 C 1.425781 -1.238281 1.546875 -1.175781 1.703125 -1.125 L 1.296875 -0.34375 C 0.972656 -0.46875 0.722656 -0.644531 0.546875 -0.875 C 0.367188 -1.101562 0.28125 -1.347656 0.28125 -1.609375 C 0.28125 -1.898438 0.367188 -2.140625 0.546875 -2.328125 C 0.722656 -2.515625 0.972656 -2.628906 1.296875 -2.671875 Z M 1.484375 -3.578125 C 1.703125 -3.472656 1.867188 -3.335938 1.984375 -3.171875 C 2.109375 -3.015625 2.1875 -2.804688 2.21875 -2.546875 C 2.457031 -2.453125 2.710938 -2.28125 2.984375 -2.03125 L 2.984375 -3.578125 Z M 1.484375 -3.578125 "/></g></g><g transform="translate(79.654333, 32.612369)"><g><path d="M 1.515625 0 L 0.59375 0 L 0.59375 -3.109375 C 0.476562 -3.421875 0.269531 -3.578125 -0.03125 -3.578125 L -0.078125 -3.578125 L -0.078125 -4.34375 L 0.078125 -4.34375 C 0.210938 -4.34375 0.320312 -4.300781 0.40625 -4.21875 C 0.488281 -4.144531 0.5625 -4.039062 0.625 -3.90625 C 0.601562 -4.019531 0.59375 -4.144531 0.59375 -4.28125 L 0.59375 -4.8125 L 1.359375 -4.8125 L 1.515625 -4.34375 L 2.203125 -4.34375 L 2.203125 -3.578125 L 1.515625 -3.578125 Z M 0.359375 -4.34375 Z M 0.359375 -4.34375 "/></g></g></g><g fill="#ffffff" fill-opacity="1"><g transform="translate(81.77758, 32.612369)"><g><path d="M 2.859375 -4.34375 L 2.859375 -3.578125 L 2.453125 -3.578125 C 2.066406 -3.378906 1.765625 -3.128906 1.546875 -2.828125 C 1.335938 -2.523438 1.234375 -2.195312 1.234375 -1.84375 C 1.234375 -1.488281 1.304688 -1.21875 1.453125 -1.03125 C 1.609375 -0.84375 1.8125 -0.75 2.0625 -0.75 C 2.175781 -0.75 2.269531 -0.757812 2.34375 -0.78125 C 2.425781 -0.8125 2.5 -0.847656 2.5625 -0.890625 L 2.921875 -0.1875 C 2.796875 -0.113281 2.660156 -0.0546875 2.515625 -0.015625 C 2.367188 0.015625 2.195312 0.03125 2 0.03125 C 1.46875 0.03125 1.050781 -0.128906 0.75 -0.453125 C 0.445312 -0.773438 0.296875 -1.226562 0.296875 -1.8125 C 0.296875 -2.164062 0.367188 -2.5 0.515625 -2.8125 C 0.671875 -3.125 0.882812 -3.382812 1.15625 -3.59375 C 1.0625 -3.582031 0.894531 -3.578125 0.65625 -3.578125 L -0.078125 -3.578125 L -0.078125 -4.34375 Z M 2.859375 -4.34375 "/></g></g><g transform="translate(84.565406, 32.612369)"><g><path d="M 1.484375 -3.515625 C 1.546875 -3.421875 1.617188 -3.335938 1.703125 -3.265625 C 1.785156 -3.203125 1.875 -3.144531 1.96875 -3.09375 C 2.070312 -3.039062 2.175781 -3.003906 2.28125 -2.984375 C 2.382812 -2.960938 2.507812 -2.953125 2.65625 -2.953125 L 2.765625 -2.953125 C 3.085938 -2.953125 3.320312 -2.90625 3.46875 -2.8125 C 3.613281 -2.726562 3.71875 -2.617188 3.78125 -2.484375 C 3.84375 -2.359375 3.875 -2.222656 3.875 -2.078125 C 3.875 -1.691406 3.769531 -1.347656 3.5625 -1.046875 C 3.351562 -0.753906 3.097656 -0.53125 2.796875 -0.375 C 2.492188 -0.21875 2.179688 -0.140625 1.859375 -0.140625 C 1.535156 -0.140625 1.28125 -0.1875 1.09375 -0.28125 C 0.914062 -0.382812 0.78125 -0.53125 0.6875 -0.71875 C 0.601562 -0.90625 0.5625 -1.175781 0.5625 -1.53125 L 0.5625 -3.578125 L -0.078125 -3.578125 L -0.078125 -4.34375 L 4.21875 -4.34375 L 4.21875 -3.578125 L 1.484375 -3.578125 Z M 1.484375 -2.609375 L 1.484375 -1.53125 C 1.484375 -1.363281 1.492188 -1.238281 1.515625 -1.15625 C 1.535156 -1.070312 1.578125 -1.007812 1.640625 -0.96875 C 1.710938 -0.925781 1.804688 -0.90625 1.921875 -0.90625 C 2.171875 -0.90625 2.398438 -1.015625 2.609375 -1.234375 C 2.828125 -1.453125 2.9375 -1.671875 2.9375 -1.890625 C 2.9375 -2.066406 2.828125 -2.15625 2.609375 -2.15625 L 2.546875 -2.15625 C 2.390625 -2.15625 2.257812 -2.171875 2.15625 -2.203125 C 2.0625 -2.234375 1.953125 -2.28125 1.828125 -2.34375 C 1.703125 -2.414062 1.585938 -2.503906 1.484375 -2.609375 Z M 1.734375 -4.34375 Z M 2.15625 0 Z M 2.15625 0 "/></g></g></g><g fill="#ffffff" fill-opacity="1"><g transform="translate(87.816734, 32.612369)"><g><path d="M -2.046875 -5.203125 L 0.40625 -6.40625 L 0.78125 -5.75 L -1.640625 -4.5 Z M -1.53125 -4.34375 Z M -1.703125 -5.140625 Z M -1.703125 -5.140625 "/></g></g></g><g fill="#ffffff" fill-opacity="1"><g transform="translate(88.702841, 32.612369)"><g><path d="M 2.578125 -2.65625 C 2.566406 -2.78125 2.5625 -2.90625 2.5625 -3.03125 L 2.5625 -3.578125 L -0.078125 -3.578125 L -0.078125 -4.34375 L 4.65625 -4.34375 C 4.644531 -4.488281 4.601562 -4.59375 4.53125 -4.65625 C 4.457031 -4.71875 4.332031 -4.75 4.15625 -4.75 L 3.640625 -4.75 C 3.066406 -4.75 2.648438 -4.84375 2.390625 -5.03125 C 2.140625 -5.226562 2.015625 -5.539062 2.015625 -5.96875 C 2.015625 -6.082031 2.023438 -6.21875 2.046875 -6.375 L 2.921875 -6.3125 C 2.910156 -6.25 2.90625 -6.179688 2.90625 -6.109375 C 2.90625 -5.941406 2.925781 -5.816406 2.96875 -5.734375 C 3.019531 -5.648438 3.09375 -5.59375 3.1875 -5.5625 C 3.28125 -5.53125 3.425781 -5.515625 3.625 -5.515625 L 4.171875 -5.515625 C 4.441406 -5.515625 4.648438 -5.492188 4.796875 -5.453125 C 4.953125 -5.421875 5.082031 -5.359375 5.1875 -5.265625 C 5.289062 -5.179688 5.367188 -5.0625 5.421875 -4.90625 C 5.484375 -4.75 5.519531 -4.5625 5.53125 -4.34375 L 6.203125 -4.34375 L 6.203125 -3.578125 L 3.484375 -3.578125 L 3.484375 -1.53125 C 3.484375 -1.363281 3.492188 -1.238281 3.515625 -1.15625 C 3.535156 -1.070312 3.578125 -1.007812 3.640625 -0.96875 C 3.703125 -0.925781 3.796875 -0.90625 3.921875 -0.90625 C 4.160156 -0.90625 4.390625 -1.007812 4.609375 -1.21875 C 4.835938 -1.4375 4.953125 -1.65625 4.953125 -1.875 C 4.953125 -2.070312 4.835938 -2.171875 4.609375 -2.171875 C 4.503906 -2.171875 4.398438 -2.160156 4.296875 -2.140625 L 4.1875 -2.90625 C 4.394531 -2.945312 4.613281 -2.96875 4.84375 -2.96875 C 5.175781 -2.96875 5.425781 -2.882812 5.59375 -2.71875 C 5.769531 -2.5625 5.859375 -2.332031 5.859375 -2.03125 C 5.859375 -1.695312 5.765625 -1.378906 5.578125 -1.078125 C 5.390625 -0.785156 5.140625 -0.554688 4.828125 -0.390625 C 4.523438 -0.222656 4.203125 -0.140625 3.859375 -0.140625 C 3.484375 -0.140625 3.207031 -0.203125 3.03125 -0.328125 C 2.851562 -0.453125 2.726562 -0.609375 2.65625 -0.796875 C 2.59375 -0.992188 2.5625 -1.238281 2.5625 -1.53125 L 2.5625 -1.78125 C 2.164062 -2.15625 1.8125 -2.34375 1.5 -2.34375 C 1.382812 -2.34375 1.296875 -2.316406 1.234375 -2.265625 C 1.179688 -2.222656 1.15625 -2.160156 1.15625 -2.078125 C 1.15625 -1.984375 1.1875 -1.90625 1.25 -1.84375 C 1.3125 -1.78125 1.410156 -1.722656 1.546875 -1.671875 L 1.140625 -0.90625 C 0.847656 -1.03125 0.617188 -1.195312 0.453125 -1.40625 C 0.285156 -1.625 0.203125 -1.859375 0.203125 -2.109375 C 0.203125 -2.421875 0.304688 -2.671875 0.515625 -2.859375 C 0.734375 -3.046875 1.003906 -3.140625 1.328125 -3.140625 C 1.554688 -3.140625 1.757812 -3.101562 1.9375 -3.03125 C 2.125 -2.96875 2.335938 -2.84375 2.578125 -2.65625 Z M 3.171875 -6.40625 Z M 4.15625 0 Z M 4.15625 0 "/></g></g></g><g fill="#ffffff" fill-opacity="1"><g transform="translate(94.837422, 32.612369)"><g/></g><g transform="translate(96.650532, 32.612369)"><g><path d="M 4.96875 0 L 4.0625 0 C 3.988281 -0.175781 3.890625 -0.296875 3.765625 -0.359375 C 3.648438 -0.429688 3.492188 -0.46875 3.296875 -0.46875 C 3.117188 -0.46875 2.890625 -0.453125 2.609375 -0.421875 C 2.316406 -0.378906 2.082031 -0.359375 1.90625 -0.359375 C 1.46875 -0.359375 1.128906 -0.414062 0.890625 -0.53125 C 0.660156 -0.65625 0.488281 -0.832031 0.375 -1.0625 C 0.269531 -1.289062 0.21875 -1.566406 0.21875 -1.890625 C 0.21875 -2.097656 0.242188 -2.34375 0.296875 -2.625 L 1.203125 -2.515625 C 1.148438 -2.328125 1.125 -2.132812 1.125 -1.9375 C 1.125 -1.769531 1.148438 -1.628906 1.203125 -1.515625 C 1.253906 -1.398438 1.34375 -1.3125 1.46875 -1.25 C 1.59375 -1.1875 1.78125 -1.15625 2.03125 -1.15625 C 2.175781 -1.15625 2.375 -1.171875 2.625 -1.203125 C 2.882812 -1.242188 3.066406 -1.265625 3.171875 -1.265625 C 3.390625 -1.265625 3.5625 -1.234375 3.6875 -1.171875 C 3.8125 -1.117188 3.929688 -1.03125 4.046875 -0.90625 L 4.046875 -3.03125 C 4.046875 -3.1875 4.035156 -3.300781 4.015625 -3.375 C 3.992188 -3.457031 3.953125 -3.519531 3.890625 -3.5625 C 3.828125 -3.601562 3.738281 -3.625 3.625 -3.625 C 3.476562 -3.625 3.332031 -3.578125 3.1875 -3.484375 C 3.050781 -3.390625 2.9375 -3.273438 2.84375 -3.140625 C 2.757812 -3.015625 2.71875 -2.910156 2.71875 -2.828125 C 2.71875 -2.734375 2.742188 -2.671875 2.796875 -2.640625 C 2.859375 -2.609375 2.945312 -2.59375 3.0625 -2.59375 C 3.132812 -2.59375 3.222656 -2.601562 3.328125 -2.625 L 3.375 -1.875 C 3.226562 -1.820312 3.039062 -1.796875 2.8125 -1.796875 C 2.5 -1.796875 2.253906 -1.875 2.078125 -2.03125 C 1.898438 -2.1875 1.8125 -2.40625 1.8125 -2.6875 C 1.8125 -2.945312 1.898438 -3.210938 2.078125 -3.484375 C 2.253906 -3.753906 2.488281 -3.972656 2.78125 -4.140625 C 3.082031 -4.304688 3.394531 -4.390625 3.71875 -4.390625 C 4.019531 -4.390625 4.257812 -4.34375 4.4375 -4.25 C 4.625 -4.15625 4.757812 -4.03125 4.84375 -3.875 C 4.925781 -3.726562 4.96875 -3.515625 4.96875 -3.234375 Z M 4.96875 0 "/></g></g></g><g fill="#ffffff" fill-opacity="1"><g transform="translate(102.212552, 32.612369)"><g><path d="M 2.234375 -2.109375 C 2.441406 -1.648438 2.675781 -1.316406 2.9375 -1.109375 C 3.207031 -0.898438 3.53125 -0.796875 3.90625 -0.796875 C 4.25 -0.796875 4.507812 -0.867188 4.6875 -1.015625 C 4.875 -1.160156 4.96875 -1.367188 4.96875 -1.640625 C 4.96875 -1.765625 4.945312 -1.882812 4.90625 -2 C 4.539062 -1.613281 4.164062 -1.421875 3.78125 -1.421875 C 3.332031 -1.421875 3.050781 -1.585938 2.9375 -1.921875 C 2.644531 -2.171875 2.382812 -2.34375 2.15625 -2.4375 C 1.9375 -2.539062 1.707031 -2.59375 1.46875 -2.59375 C 1.375 -2.59375 1.296875 -2.566406 1.234375 -2.515625 C 1.179688 -2.472656 1.15625 -2.414062 1.15625 -2.34375 C 1.15625 -2.28125 1.164062 -2.226562 1.1875 -2.1875 C 1.21875 -2.144531 1.28125 -2.101562 1.375 -2.0625 L 1 -1.359375 C 0.46875 -1.597656 0.203125 -1.941406 0.203125 -2.390625 C 0.203125 -2.691406 0.3125 -2.925781 0.53125 -3.09375 C 0.75 -3.269531 1.03125 -3.359375 1.375 -3.359375 C 1.90625 -3.359375 2.40625 -3.171875 2.875 -2.796875 C 2.863281 -2.859375 2.859375 -2.953125 2.859375 -3.078125 L 2.859375 -3.578125 L -0.078125 -3.578125 L -0.078125 -4.34375 L 6.203125 -4.34375 L 6.203125 -3.578125 L 3.78125 -3.578125 L 3.78125 -2.453125 C 3.78125 -2.359375 3.796875 -2.289062 3.828125 -2.25 C 3.859375 -2.21875 3.898438 -2.203125 3.953125 -2.203125 C 4.128906 -2.203125 4.34375 -2.378906 4.59375 -2.734375 L 5.40625 -2.890625 C 5.582031 -2.640625 5.707031 -2.40625 5.78125 -2.1875 C 5.851562 -1.96875 5.890625 -1.738281 5.890625 -1.5 C 5.890625 -1.0625 5.71875 -0.703125 5.375 -0.421875 C 5.039062 -0.140625 4.578125 0 3.984375 0 C 3.378906 0 2.867188 -0.144531 2.453125 -0.4375 C 2.046875 -0.738281 1.707031 -1.175781 1.4375 -1.75 Z M 3.640625 -4.34375 Z M 3.9375 0 Z M 3.9375 0 "/></g></g></g><g fill="#ffffff" fill-opacity="1"><g transform="translate(108.347134, 32.612369)"><g/></g><g transform="translate(110.160243, 32.612369)"><g><path d="M 4.203125 -0.921875 L 4.234375 -1.703125 C 4.296875 -1.691406 4.367188 -1.6875 4.453125 -1.6875 C 4.597656 -1.6875 4.703125 -1.707031 4.765625 -1.75 C 4.828125 -1.800781 4.859375 -1.878906 4.859375 -1.984375 C 4.859375 -2.128906 4.765625 -2.257812 4.578125 -2.375 C 4.398438 -2.5 4.132812 -2.59375 3.78125 -2.65625 L 3.78125 0 L 2.875 0 C 2.613281 -0.375 2.273438 -0.679688 1.859375 -0.921875 C 1.453125 -1.171875 0.984375 -1.335938 0.453125 -1.421875 L 0.109375 -2.234375 C 1.066406 -2.765625 1.992188 -3.160156 2.890625 -3.421875 L 2.890625 -3.578125 L -0.078125 -3.578125 L -0.078125 -4.34375 L 6.0625 -4.34375 L 6.0625 -3.578125 L 3.78125 -3.578125 L 3.78125 -3.421875 C 4.394531 -3.328125 4.878906 -3.132812 5.234375 -2.84375 C 5.585938 -2.550781 5.765625 -2.203125 5.765625 -1.796875 C 5.765625 -1.515625 5.671875 -1.289062 5.484375 -1.125 C 5.304688 -0.96875 5.046875 -0.890625 4.703125 -0.890625 C 4.515625 -0.890625 4.347656 -0.898438 4.203125 -0.921875 Z M 2.875 -2.59375 C 2.414062 -2.445312 1.882812 -2.226562 1.28125 -1.9375 C 1.570312 -1.882812 1.859375 -1.773438 2.140625 -1.609375 C 2.421875 -1.453125 2.664062 -1.265625 2.875 -1.046875 C 2.875 -1.160156 2.875 -1.285156 2.875 -1.421875 Z M 2.890625 -4.34375 Z M 2.890625 -4.34375 "/></g></g></g><g fill="#ffffff" fill-opacity="1"><g transform="translate(116.144868, 32.612369)"><g><path d="M 0.609375 -4.34375 C 0.460938 -4.507812 0.304688 -4.703125 0.140625 -4.921875 C 0.441406 -5.421875 0.757812 -5.789062 1.09375 -6.03125 C 1.4375 -6.28125 1.863281 -6.40625 2.375 -6.40625 C 2.695312 -6.40625 2.988281 -6.363281 3.25 -6.28125 C 3.519531 -6.207031 3.8125 -6.09375 4.125 -5.9375 C 4.4375 -5.78125 4.835938 -5.546875 5.328125 -5.234375 L 4.859375 -4.609375 C 4.191406 -5.035156 3.703125 -5.3125 3.390625 -5.4375 C 3.085938 -5.570312 2.78125 -5.640625 2.46875 -5.640625 C 2.21875 -5.640625 1.984375 -5.570312 1.765625 -5.4375 C 1.554688 -5.300781 1.359375 -5.09375 1.171875 -4.8125 C 1.265625 -4.632812 1.367188 -4.476562 1.484375 -4.34375 L 2.203125 -4.34375 L 2.203125 -3.578125 L 1.515625 -3.578125 L 1.515625 0 L 0.59375 0 L 0.59375 -3.578125 L -0.078125 -3.578125 L -0.078125 -4.34375 Z M 0.609375 -4.34375 "/></g></g><g transform="translate(118.268115, 32.612369)"><g><path d="M 1.296875 -2.671875 C 1.234375 -2.816406 1.125 -2.921875 0.96875 -2.984375 C 0.820312 -3.054688 0.535156 -3.125 0.109375 -3.1875 L 0.203125 -3.578125 L -0.078125 -3.578125 L -0.078125 -4.34375 L 4.578125 -4.34375 L 4.578125 -3.578125 L 3.90625 -3.578125 L 3.90625 0 L 2.984375 0 L 2.984375 -1.0625 C 2.484375 -1.632812 2.039062 -1.921875 1.65625 -1.921875 C 1.519531 -1.921875 1.414062 -1.890625 1.34375 -1.828125 C 1.269531 -1.773438 1.234375 -1.691406 1.234375 -1.578125 C 1.234375 -1.472656 1.269531 -1.382812 1.34375 -1.3125 C 1.425781 -1.238281 1.546875 -1.175781 1.703125 -1.125 L 1.296875 -0.34375 C 0.972656 -0.46875 0.722656 -0.644531 0.546875 -0.875 C 0.367188 -1.101562 0.28125 -1.347656 0.28125 -1.609375 C 0.28125 -1.898438 0.367188 -2.140625 0.546875 -2.328125 C 0.722656 -2.515625 0.972656 -2.628906 1.296875 -2.671875 Z M 1.484375 -3.578125 C 1.703125 -3.472656 1.867188 -3.335938 1.984375 -3.171875 C 2.109375 -3.015625 2.1875 -2.804688 2.21875 -2.546875 C 2.457031 -2.453125 2.710938 -2.28125 2.984375 -2.03125 L 2.984375 -3.578125 Z M 1.484375 -3.578125 "/></g></g></g><g fill="#ffffff" fill-opacity="1"><g transform="translate(122.770216, 32.612369)"><g><path d="M -0.078125 -4.328125 C 0.148438 -4.367188 0.367188 -4.390625 0.578125 -4.390625 C 0.796875 -4.390625 0.988281 -4.347656 1.15625 -4.265625 C 1.332031 -4.179688 1.472656 -4.054688 1.578125 -3.890625 C 1.660156 -4.046875 1.773438 -4.164062 1.921875 -4.25 C 2.066406 -4.34375 2.234375 -4.390625 2.421875 -4.390625 C 2.847656 -4.390625 3.195312 -4.207031 3.46875 -3.84375 C 3.46875 -3.96875 3.46875 -4.09375 3.46875 -4.21875 L 3.46875 -4.8125 L 4.21875 -4.8125 L 4.375 -4.34375 L 5.0625 -4.34375 L 5.0625 -3.578125 L 4.390625 -3.578125 L 4.390625 0 L 3.46875 0 L 3.46875 -2.96875 C 3.1875 -3.40625 2.882812 -3.625 2.5625 -3.625 C 2.40625 -3.625 2.285156 -3.582031 2.203125 -3.5 C 2.117188 -3.425781 2.078125 -3.316406 2.078125 -3.171875 C 2.078125 -3.003906 2.144531 -2.878906 2.28125 -2.796875 C 2.414062 -2.722656 2.617188 -2.679688 2.890625 -2.671875 L 2.796875 -1.859375 C 2.210938 -1.890625 1.816406 -2.082031 1.609375 -2.4375 C 1.378906 -2.050781 0.972656 -1.859375 0.390625 -1.859375 L 0.296875 -2.65625 C 0.566406 -2.675781 0.769531 -2.722656 0.90625 -2.796875 C 1.039062 -2.878906 1.109375 -3.003906 1.109375 -3.171875 C 1.109375 -3.316406 1.054688 -3.425781 0.953125 -3.5 C 0.859375 -3.582031 0.71875 -3.625 0.53125 -3.625 C 0.34375 -3.625 0.164062 -3.597656 0 -3.546875 Z M 3.21875 -4.34375 Z M 3.21875 -4.34375 "/></g></g><g transform="translate(127.756268, 32.612369)"><g><path d="M 2.90625 -2.25 C 2.90625 -2.34375 2.90625 -2.5 2.90625 -2.71875 L 2.90625 -3.578125 L -0.078125 -3.578125 L -0.078125 -4.34375 L 4.5 -4.34375 L 4.5 -3.578125 L 3.828125 -3.578125 L 3.828125 0 L 2.90625 0 L 2.90625 -1.28125 C 2.40625 -1.84375 1.960938 -2.125 1.578125 -2.125 C 1.441406 -2.125 1.335938 -2.09375 1.265625 -2.03125 C 1.191406 -1.976562 1.15625 -1.898438 1.15625 -1.796875 C 1.15625 -1.679688 1.191406 -1.585938 1.265625 -1.515625 C 1.347656 -1.441406 1.46875 -1.378906 1.625 -1.328125 L 1.203125 -0.5625 C 0.890625 -0.6875 0.644531 -0.859375 0.46875 -1.078125 C 0.289062 -1.304688 0.203125 -1.554688 0.203125 -1.828125 C 0.203125 -2.160156 0.316406 -2.425781 0.546875 -2.625 C 0.773438 -2.820312 1.054688 -2.921875 1.390625 -2.921875 C 1.648438 -2.921875 1.898438 -2.867188 2.140625 -2.765625 C 2.390625 -2.660156 2.644531 -2.488281 2.90625 -2.25 Z M 2.90625 -2.25 "/></g></g><g transform="translate(132.179983, 32.612369)"><g/></g><g transform="translate(133.993092, 32.612369)"><g><path d="M 4.96875 0 L 4.0625 0 C 3.988281 -0.175781 3.890625 -0.296875 3.765625 -0.359375 C 3.648438 -0.429688 3.492188 -0.46875 3.296875 -0.46875 C 3.117188 -0.46875 2.890625 -0.453125 2.609375 -0.421875 C 2.316406 -0.378906 2.082031 -0.359375 1.90625 -0.359375 C 1.46875 -0.359375 1.128906 -0.414062 0.890625 -0.53125 C 0.660156 -0.65625 0.488281 -0.832031 0.375 -1.0625 C 0.269531 -1.289062 0.21875 -1.566406 0.21875 -1.890625 C 0.21875 -2.097656 0.242188 -2.34375 0.296875 -2.625 L 1.203125 -2.515625 C 1.148438 -2.328125 1.125 -2.132812 1.125 -1.9375 C 1.125 -1.769531 1.148438 -1.628906 1.203125 -1.515625 C 1.253906 -1.398438 1.34375 -1.3125 1.46875 -1.25 C 1.59375 -1.1875 1.78125 -1.15625 2.03125 -1.15625 C 2.175781 -1.15625 2.375 -1.171875 2.625 -1.203125 C 2.882812 -1.242188 3.066406 -1.265625 3.171875 -1.265625 C 3.390625 -1.265625 3.5625 -1.234375 3.6875 -1.171875 C 3.8125 -1.117188 3.929688 -1.03125 4.046875 -0.90625 L 4.046875 -3.03125 C 4.046875 -3.1875 4.035156 -3.300781 4.015625 -3.375 C 3.992188 -3.457031 3.953125 -3.519531 3.890625 -3.5625 C 3.828125 -3.601562 3.738281 -3.625 3.625 -3.625 C 3.476562 -3.625 3.332031 -3.578125 3.1875 -3.484375 C 3.050781 -3.390625 2.9375 -3.273438 2.84375 -3.140625 C 2.757812 -3.015625 2.71875 -2.910156 2.71875 -2.828125 C 2.71875 -2.734375 2.742188 -2.671875 2.796875 -2.640625 C 2.859375 -2.609375 2.945312 -2.59375 3.0625 -2.59375 C 3.132812 -2.59375 3.222656 -2.601562 3.328125 -2.625 L 3.375 -1.875 C 3.226562 -1.820312 3.039062 -1.796875 2.8125 -1.796875 C 2.5 -1.796875 2.253906 -1.875 2.078125 -2.03125 C 1.898438 -2.1875 1.8125 -2.40625 1.8125 -2.6875 C 1.8125 -2.945312 1.898438 -3.210938 2.078125 -3.484375 C 2.253906 -3.753906 2.488281 -3.972656 2.78125 -4.140625 C 3.082031 -4.304688 3.394531 -4.390625 3.71875 -4.390625 C 4.019531 -4.390625 4.257812 -4.34375 4.4375 -4.25 C 4.625 -4.15625 4.757812 -4.03125 4.84375 -3.875 C 4.925781 -3.726562 4.96875 -3.515625 4.96875 -3.234375 Z M 4.96875 0 "/></g></g></g><g fill="#ffffff" fill-opacity="1"><g transform="translate(139.555113, 32.612369)"><g><path d="M 2.859375 -4.34375 L 2.859375 -3.578125 L 2.453125 -3.578125 C 2.066406 -3.378906 1.765625 -3.128906 1.546875 -2.828125 C 1.335938 -2.523438 1.234375 -2.195312 1.234375 -1.84375 C 1.234375 -1.488281 1.304688 -1.21875 1.453125 -1.03125 C 1.609375 -0.84375 1.8125 -0.75 2.0625 -0.75 C 2.175781 -0.75 2.269531 -0.757812 2.34375 -0.78125 C 2.425781 -0.8125 2.5 -0.847656 2.5625 -0.890625 L 2.921875 -0.1875 C 2.796875 -0.113281 2.660156 -0.0546875 2.515625 -0.015625 C 2.367188 0.015625 2.195312 0.03125 2 0.03125 C 1.46875 0.03125 1.050781 -0.128906 0.75 -0.453125 C 0.445312 -0.773438 0.296875 -1.226562 0.296875 -1.8125 C 0.296875 -2.164062 0.367188 -2.5 0.515625 -2.8125 C 0.671875 -3.125 0.882812 -3.382812 1.15625 -3.59375 C 1.0625 -3.582031 0.894531 -3.578125 0.65625 -3.578125 L -0.078125 -3.578125 L -0.078125 -4.34375 Z M 2.859375 -4.34375 "/></g></g><g transform="translate(142.342939, 32.612369)"><g><path d="M 4.96875 -3.578125 C 4.78125 -3.578125 4.628906 -3.582031 4.515625 -3.59375 C 4.742188 -3.289062 5.160156 -3.140625 5.765625 -3.140625 C 5.867188 -3.140625 5.992188 -3.144531 6.140625 -3.15625 L 6.5625 -2.46875 C 6.375 -2.15625 6.28125 -1.789062 6.28125 -1.375 C 6.28125 -0.957031 6.359375 -0.535156 6.515625 -0.109375 L 5.609375 0.078125 C 5.441406 -0.453125 5.359375 -0.9375 5.359375 -1.375 C 5.359375 -1.78125 5.40625 -2.117188 5.5 -2.390625 C 4.601562 -2.503906 3.984375 -2.847656 3.640625 -3.421875 C 3.359375 -3.285156 3.144531 -3.148438 3 -3.015625 C 2.863281 -2.878906 2.796875 -2.75 2.796875 -2.625 C 2.796875 -2.539062 2.816406 -2.472656 2.859375 -2.421875 C 2.910156 -2.378906 2.972656 -2.359375 3.046875 -2.359375 C 3.160156 -2.359375 3.265625 -2.378906 3.359375 -2.421875 C 3.453125 -2.460938 3.570312 -2.539062 3.71875 -2.65625 L 4.734375 -2.359375 C 4.816406 -2.128906 4.859375 -1.894531 4.859375 -1.65625 C 4.859375 -1.382812 4.789062 -1.132812 4.65625 -0.90625 C 4.519531 -0.6875 4.316406 -0.515625 4.046875 -0.390625 C 3.773438 -0.273438 3.453125 -0.21875 3.078125 -0.21875 C 2.535156 -0.21875 2.078125 -0.320312 1.703125 -0.53125 C 1.328125 -0.738281 1.007812 -1.046875 0.75 -1.453125 C 0.488281 -1.867188 0.273438 -2.378906 0.109375 -2.984375 L 0.984375 -3.234375 C 1.191406 -2.472656 1.457031 -1.910156 1.78125 -1.546875 C 2.101562 -1.191406 2.515625 -1.015625 3.015625 -1.015625 C 3.316406 -1.015625 3.546875 -1.066406 3.703125 -1.171875 C 3.867188 -1.285156 3.953125 -1.445312 3.953125 -1.65625 C 3.953125 -1.726562 3.941406 -1.8125 3.921875 -1.90625 C 3.617188 -1.695312 3.285156 -1.59375 2.921875 -1.59375 C 2.597656 -1.59375 2.34375 -1.671875 2.15625 -1.828125 C 1.96875 -1.984375 1.875 -2.203125 1.875 -2.484375 C 1.875 -2.710938 1.929688 -2.921875 2.046875 -3.109375 C 2.171875 -3.304688 2.351562 -3.460938 2.59375 -3.578125 C 2.46875 -3.578125 2.304688 -3.578125 2.109375 -3.578125 L -0.078125 -3.578125 L -0.078125 -4.34375 L 7.0625 -4.34375 L 7.0625 -3.578125 Z M 4.625 -4.34375 Z M 5.5625 0 Z M 5.5625 0 "/></g></g></g><g fill="#ffffff" fill-opacity="1"><g transform="translate(149.332954, 32.612369)"><g><path d="M 2.578125 -2.65625 C 2.566406 -2.78125 2.5625 -2.90625 2.5625 -3.03125 L 2.5625 -3.578125 L -0.078125 -3.578125 L -0.078125 -4.34375 L 4.65625 -4.34375 C 4.644531 -4.488281 4.601562 -4.59375 4.53125 -4.65625 C 4.457031 -4.71875 4.332031 -4.75 4.15625 -4.75 L 3.640625 -4.75 C 3.066406 -4.75 2.648438 -4.84375 2.390625 -5.03125 C 2.140625 -5.226562 2.015625 -5.539062 2.015625 -5.96875 C 2.015625 -6.082031 2.023438 -6.21875 2.046875 -6.375 L 2.921875 -6.3125 C 2.910156 -6.25 2.90625 -6.179688 2.90625 -6.109375 C 2.90625 -5.941406 2.925781 -5.816406 2.96875 -5.734375 C 3.019531 -5.648438 3.09375 -5.59375 3.1875 -5.5625 C 3.28125 -5.53125 3.425781 -5.515625 3.625 -5.515625 L 4.171875 -5.515625 C 4.441406 -5.515625 4.648438 -5.492188 4.796875 -5.453125 C 4.953125 -5.421875 5.082031 -5.359375 5.1875 -5.265625 C 5.289062 -5.179688 5.367188 -5.0625 5.421875 -4.90625 C 5.484375 -4.75 5.519531 -4.5625 5.53125 -4.34375 L 6.203125 -4.34375 L 6.203125 -3.578125 L 3.484375 -3.578125 L 3.484375 -1.53125 C 3.484375 -1.363281 3.492188 -1.238281 3.515625 -1.15625 C 3.535156 -1.070312 3.578125 -1.007812 3.640625 -0.96875 C 3.703125 -0.925781 3.796875 -0.90625 3.921875 -0.90625 C 4.160156 -0.90625 4.390625 -1.007812 4.609375 -1.21875 C 4.835938 -1.4375 4.953125 -1.65625 4.953125 -1.875 C 4.953125 -2.070312 4.835938 -2.171875 4.609375 -2.171875 C 4.503906 -2.171875 4.398438 -2.160156 4.296875 -2.140625 L 4.1875 -2.90625 C 4.394531 -2.945312 4.613281 -2.96875 4.84375 -2.96875 C 5.175781 -2.96875 5.425781 -2.882812 5.59375 -2.71875 C 5.769531 -2.5625 5.859375 -2.332031 5.859375 -2.03125 C 5.859375 -1.695312 5.765625 -1.378906 5.578125 -1.078125 C 5.390625 -0.785156 5.140625 -0.554688 4.828125 -0.390625 C 4.523438 -0.222656 4.203125 -0.140625 3.859375 -0.140625 C 3.484375 -0.140625 3.207031 -0.203125 3.03125 -0.328125 C 2.851562 -0.453125 2.726562 -0.609375 2.65625 -0.796875 C 2.59375 -0.992188 2.5625 -1.238281 2.5625 -1.53125 L 2.5625 -1.78125 C 2.164062 -2.15625 1.8125 -2.34375 1.5 -2.34375 C 1.382812 -2.34375 1.296875 -2.316406 1.234375 -2.265625 C 1.179688 -2.222656 1.15625 -2.160156 1.15625 -2.078125 C 1.15625 -1.984375 1.1875 -1.90625 1.25 -1.84375 C 1.3125 -1.78125 1.410156 -1.722656 1.546875 -1.671875 L 1.140625 -0.90625 C 0.847656 -1.03125 0.617188 -1.195312 0.453125 -1.40625 C 0.285156 -1.625 0.203125 -1.859375 0.203125 -2.109375 C 0.203125 -2.421875 0.304688 -2.671875 0.515625 -2.859375 C 0.734375 -3.046875 1.003906 -3.140625 1.328125 -3.140625 C 1.554688 -3.140625 1.757812 -3.101562 1.9375 -3.03125 C 2.125 -2.96875 2.335938 -2.84375 2.578125 -2.65625 Z M 3.171875 -6.40625 Z M 4.15625 0 Z M 4.15625 0 "/></g></g></g></svg>